<!DOCTYPE svg PUBLIC "-//W3C//DTD SVG 1.1//EN" "http://www.w3.org/Graphics/SVG/1.1/DTD/svg11.dtd">
<!-- Uploaded to: SVG Repo, www.svgrepo.com, Transformed by: SVG Repo Mixer Tools -->
<svg fill="#000000" width="128px" height="128px" viewBox="-3.12 -3.12 30.24 30.24" xmlns="http://www.w3.org/2000/svg" style="--darkreader-inline-fill: var(--darkreader-background-000000, #000000); --darkreader-inline-stroke: var(--darkreader-text-000000, #e8e6e3);" data-darkreader-inline-fill="" stroke="#000000" stroke-width="0.00024000000000000003" data-darkreader-inline-stroke="">
<g id="SVGRepo_bgCarrier" stroke-width="0"/>
<g id="SVGRepo_tracerCarrier" stroke-linecap="round" stroke-linejoin="round" stroke="#000000" stroke-width="1.584" style="--darkreader-inline-stroke: var(--darkreader-text-000000, #e8e6e3);" data-darkreader-inline-stroke="">
<path d="M12 21c-6.617 0-12-4.037-12-9s5.383-9 12-9 12 4.037 12 9-5.383 9-12 9zm0-17C5.935 4 1 7.589 1 12s4.935 8 11 8 11-3.589 11-8-4.935-8-11-8z"/>
</g>
<g id="SVGRepo_iconCarrier">
<path d="M12 21c-6.617 0-12-4.037-12-9s5.383-9 12-9 12 4.037 12 9-5.383 9-12 9zm0-17C5.935 4 1 7.589 1 12s4.935 8 11 8 11-3.589 11-8-4.935-8-11-8z"/>
</g>
</svg>