<!DOCTYPE svg PUBLIC "-//W3C//DTD SVG 1.1//EN" "http://www.w3.org/Graphics/SVG/1.1/DTD/svg11.dtd">
<!-- Uploaded to: SVG Repo, www.svgrepo.com, Transformed by: SVG Repo Mixer Tools -->
<svg width="128px" height="128px" viewBox="-1.6 -1.6 19.20 19.20" xmlns="http://www.w3.org/2000/svg" fill="none">
<g id="SVGRepo_bgCarrier" stroke-width="0"/>
<g id="SVGRepo_tracerCarrier" stroke-linecap="round" stroke-linejoin="round"/>
<g id="SVGRepo_iconCarrier">
<path fill="#000000" d="M7.463.057A.748.748 0 007.22.22l-2 2a.75.75 0 001.06 1.06L7 2.56V7H2.56l.72-.72a.75.75 0 00-1.06-1.06l-2 2a.748.748 0 000 1.06l2 2a.75.75 0 101.06-1.06l-.72-.72H7v4.44l-.72-.72a.75.75 0 00-1.06 1.06l2 2a.748.748 0 001.06 0l2-2a.75.75 0 10-1.06-1.06l-.72.72V8.5h4.44l-.72.72a.75.75 0 101.06 1.06l2-2a.748.748 0 000-1.06l-2-2a.75.75 0 10-1.06 1.06l.72.72H8.5V2.56l.72.72a.75.75 0 101.06-1.06l-2-2a.748.748 0 00-.817-.163z" style="--darkreader-inline-fill: var(--darkreader-background-000000, #000000);" data-darkreader-inline-fill=""/>
</g>
</svg>